<svg xmlns="http://www.w3.org/2000/svg" width="127" height="28" viewBox="0 0 127 28">
  <g fill="#FFF" fill-rule="evenodd" transform="translate(0 .858)">
    <path d="M26.1897991,0.727904969 L17.2258526,0.727904969 L13.3276813,14.1073156 L9.42581511,0.727904969 L2.27373675e-13,0.727904969 L2.27373675e-13,2.84511079 C1.52970892,2.84511079 2.29825833,3.24047034 2.29825833,4.0348844 L2.29825833,16.6124911 C2.29825833,17.4032102 1.52970892,17.7985697 2.27373675e-13,17.7985697 L2.27373675e-13,19.9194705 L7.33447393,19.9194705 L7.33447393,17.7985697 C5.80107006,17.7985697 5.03498396,17.4032102 5.0362156,16.6124911 L5.0362156,4.29353083 L9.8396494,19.9194705 L14.0481964,19.9194705 L18.8516302,4.29353083 L18.8516302,16.6124911 C18.8516302,17.4032102 18.0855441,17.7985697 16.5533719,17.7985697 L16.5533719,19.9194705 L26.1897991,19.9194705 L26.1897991,17.7985697 C24.6379205,17.7985697 23.8656761,17.4032102 23.8656761,16.6124911 L23.8656761,4.0348844 C23.8656761,3.24047034 24.6379205,2.84511079 26.1897991,2.84511079 L26.1897991,0.727904969 Z M39.7465673,15.241665 C39.6098541,16.2429962 39.2403592,16.9635112 38.6380825,17.414295 C38.033587,17.861344 37.2984658,18.0964268 36.5467414,18.0830808 C35.5321441,18.141799 34.5560282,17.6863708 33.9491922,16.8711375 C33.3543054,16.0619437 33.0574778,14.7440785 33.0587094,12.917542 C33.0587094,11.317629 33.3986447,10.1044541 34.0785154,9.27801714 C34.7166799,8.4698898 35.6984195,8.0098277 36.7277939,8.03651425 C37.9840766,8.03651425 38.8523896,8.35551151 39.332733,8.99350606 C38.8793579,9.01303099 38.4541764,9.21893653 38.1577392,9.56252822 C37.5372744,10.2508612 37.5599415,11.3032658 38.2094684,11.9642451 C38.6129757,12.3322892 39.1501737,12.5180369 39.694838,12.477843 C40.2944211,12.5293556 40.8832053,12.2952111 41.2836661,11.8460068 C41.625992,11.4080841 41.8049935,10.864547 41.7898741,10.3089079 C41.8026442,9.68853822 41.6454799,9.07649281 41.3353954,8.53902733 C41.0240357,8.0206556 40.5900946,7.58671432 40.0717228,7.27535474 C39.4761203,6.91777534 38.8257457,6.66062141 38.1466543,6.51419523 C37.3501042,6.33488379 36.5355219,6.2480942 35.7190728,6.25554879 C34.6364072,6.23522074 33.5592459,6.41433014 32.5414166,6.78392651 C31.6772064,7.10757531 30.8932037,7.61427805 30.2431582,8.26929604 C29.6176121,8.91529463 29.1420158,9.69113477 28.8501624,10.5416897 C28.5313565,11.4725236 28.3739041,12.4509779 28.3845988,13.4348349 C28.3569967,14.5071009 28.5454868,15.5739546 28.9388412,16.5718466 C29.2792988,17.4028865 29.8154985,18.1393689 30.5018047,18.718612 C31.2100613,19.2963224 32.0322318,19.7181097 32.9146064,19.95642 C33.920926,20.2313019 34.9604459,20.365594 36.0035838,20.3554745 C36.8458943,20.3752126 37.6837008,20.2269949 38.4681149,19.9194705 C39.1207212,19.6540837 39.7174167,19.2679868 40.2269106,18.7814262 C40.691266,18.3271234 41.0715524,17.7942222 41.3501752,17.2073779 C41.6188009,16.6409291 41.8089929,16.0405199 41.9155024,15.4227175 L39.7465673,15.241665 Z M65.3932088,0.727904969 L56.2519048,0.727904969 L56.2519048,2.84511079 L56.9502502,2.84511079 C57.2302272,2.82267078 57.5077467,2.91163643 57.7224945,3.09267238 C57.8921134,3.24787622 57.9864074,3.46879397 57.981141,3.69864403 C57.9818427,4.02445267 57.8283744,4.33138869 57.5673067,4.52631262 L51.5519296,9.56252822 L51.5519296,4.0348844 C51.5519296,3.24047034 52.3180156,2.84387914 53.8501879,2.84511079 L53.8501879,0.727904969 L44.0105385,0.727904969 L44.0105385,2.84511079 C45.5402474,2.84511079 46.3087968,3.24047034 46.3087968,4.0348844 L46.3087968,16.6124911 C46.3087968,17.4032102 45.5402474,17.7985697 44.0105385,17.7985697 L44.0105385,19.9194705 L53.8501879,19.9194705 L53.8501879,17.7985697 C52.316784,17.7985697 51.5506981,17.4032102 51.5519296,16.6124911 L51.5519296,12.6847602 L54.5485333,10.1537201 L58.3173813,16.4831679 C58.4474794,16.6950289 58.5271251,16.9339655 58.5501631,17.1815132 C58.5501631,17.5916526 58.2471773,17.7985697 57.6449006,17.7985697 L56.4846866,17.7985697 L56.4846866,19.9194705 L67.1520046,19.9194705 L67.1520046,17.7985697 L66.5829824,17.7985697 C66.1077525,17.8253621 65.6341143,17.7232299 65.2121563,17.5029738 C64.8234381,17.2370737 64.4979799,16.8889091 64.2588595,16.4831679 L58.2397874,7.13494668 L61.9347365,4.11247833 C62.4228928,3.71211718 62.978407,3.40183 63.5752939,3.19613096 C64.1590574,2.98433077 64.7725575,2.86587038 65.3932088,2.84511079 L65.3932088,0.727904969 L65.3932088,0.727904969 Z M76.0087975,0.0295595926 L69.0881579,0.0295595926 L69.0881579,2.09503613 C70.5513578,2.09503613 71.2829577,2.48177413 71.2829577,3.25525014 L71.2829577,16.6383557 C71.2829577,17.414295 70.5513578,17.7985697 69.0881579,17.7985697 L69.0881579,19.9194705 L78.2035973,19.9194705 L78.2035973,17.7985697 C76.7403975,17.7985697 76.0087975,17.414295 76.0087975,16.6383557 L76.0087975,0.0295595926 L76.0087975,0.0295595926 Z M94.4761531,13.3831056 C94.4761531,10.9037947 93.9206792,9.095733 92.809731,7.95892032 C91.6987829,6.82210764 89.9904849,6.25431716 87.6848366,6.25554879 C86.6306219,6.23575041 85.5811817,6.40210984 84.5847744,6.74697702 C82.8641101,7.33874832 81.5084972,8.68483386 80.9046051,10.4012817 C80.5718498,11.3417285 80.409197,12.3339098 80.4242617,13.3313763 C80.3860452,14.4899726 80.5938333,15.643512 81.0339283,16.7159496 C81.3956021,17.5578181 81.9590467,18.2976563 82.6744857,18.870105 C83.3780199,19.4214809 84.1921635,19.8146895 85.0614228,20.0229291 C85.9868391,20.2470133 86.9359041,20.358668 87.8880588,20.3554745 C88.7280157,20.3707203 89.5639255,20.2355732 90.3562848,19.95642 C91.0233174,19.7174984 91.6407722,19.358047 92.1778947,18.8959696 C92.6651366,18.4736388 93.0719715,17.9666599 93.3787532,17.3995152 C93.6737224,16.8522942 93.8866121,16.2646687 94.0105895,15.6554993 L91.8416544,15.4227175 C91.6720673,16.2363951 91.1957289,16.953549 90.5114727,17.4253799 C89.8494561,17.8645053 89.0703735,18.0937231 88.2760285,18.0830808 C87.1934084,18.0830808 86.3989944,17.6914162 85.9001762,16.908087 C85.4013581,16.1247578 85.1353218,14.949764 85.1020672,13.3831056 L94.4761531,13.3831056 L94.4761531,13.3831056 Z M85.1537965,11.6021401 C85.2572551,10.3606372 85.5491561,9.45906965 86.0294995,8.89004749 C86.4926233,8.33044479 87.1878383,8.01555329 87.9139235,8.03651425 C88.3320402,8.02402325 88.7449641,8.13174251 89.1036971,8.34688997 C89.4297313,8.55282353 89.7040631,8.83094803 89.905501,9.15977877 C90.1202751,9.51589464 90.2774021,9.90372436 90.3710646,10.3089079 C90.4706077,10.7328163 90.5214346,11.1667025 90.5225575,11.6021401 L85.1537965,11.6021401 L85.1537965,11.6021401 Z M103.539863,6.77284167 L96.6192235,6.77284167 L96.6192235,8.8383182 C98.0824234,8.8383182 98.8140233,9.23367775 98.8140233,10.0243969 L98.8140233,16.6420507 C98.8140233,17.414295 98.0824234,17.7998014 96.6192235,17.7985697 L96.6192235,19.9194705 L105.738358,19.9194705 L105.738358,17.7985697 C104.238209,17.7985697 103.505377,17.4130634 103.539863,16.6420507 L103.539863,6.77284167 Z M103.565728,1.58143821 C103.433527,1.27705829 103.245546,1.00009904 103.011485,0.76485446 C102.772202,0.530565738 102.491575,0.342645895 102.183817,0.210612098 C101.861684,0.0723848018 101.514544,0.00195067129 101.164011,0.00369494908 C100.818175,0.00119139746 100.475705,0.0717000505 100.158985,0.210612098 C99.8537291,0.347209942 99.573867,0.534617697 99.3313161,0.76485446 C99.0904221,0.99752166 98.8971497,1.27487991 98.762294,1.58143821 C98.623382,1.89815849 98.5528731,2.24062909 98.5553768,2.58646436 C98.5536325,2.93699753 98.6240667,3.28413717 98.762294,3.6062703 C99.0315811,4.23627885 99.5311246,4.73978676 100.158985,5.0140459 C100.475151,5.15469096 100.818,5.22527757 101.164011,5.22096305 C101.858767,5.22316605 102.524968,4.94469415 103.011485,4.44871869 C103.246031,4.20402701 103.433867,3.91851737 103.565728,3.6062703 C103.705689,3.28468122 103.776198,2.93717227 103.772645,2.58646436 C103.77696,2.24045362 103.706373,1.89760433 103.565728,1.58143821 L103.565728,1.58143821 Z M124.564123,10.3532473 C124.564123,9.01198081 124.209408,8.0402092 123.503673,7.42684765 C122.797938,6.81348611 121.770742,6.51419523 120.42578,6.51419523 C119.27657,6.48812711 118.138514,6.74441169 117.111411,7.26057494 C116.163489,7.76367759 115.361636,8.50316426 114.783593,9.40734036 L114.776203,6.77284167 L107.881428,6.77284167 L107.881428,8.8383182 C109.326153,8.8383182 110.050363,9.22259291 110.050363,9.99853221 L110.050363,16.6420507 C110.050363,17.414295 109.318764,17.7998014 107.855564,17.7985697 L107.855564,19.9194705 L116.220928,19.9194705 L116.220928,17.7985697 C115.256547,17.7985697 114.774972,17.4130634 114.776203,16.6420507 L114.776203,12.625641 C115.011615,11.7429631 115.484454,10.941692 116.143334,10.3089079 C116.680785,9.77565355 117.403764,9.47110199 118.160777,9.45906965 C118.68192,9.45157555 119.161987,9.74104828 119.398585,10.2054494 C119.690486,10.7042675 119.838284,11.4912916 119.838284,12.5739117 L119.838284,16.6420507 C119.838284,17.414295 119.348087,17.7998014 118.367694,17.7985697 L118.367694,19.9194705 L126.784788,19.9194705 L126.784788,17.7985697 C125.306808,17.7985697 124.564123,17.414295 124.564123,16.6420507 L124.564123,10.3532473 L124.564123,10.3532473 Z"/>
    <rect width="13.671" height="3.325" x="28.407" y="23.082"/>
  </g>
</svg>
